<svg width="293" height="293" viewBox="0 0 293 293" fill="none" xmlns="http://www.w3.org/2000/svg">
<path d="M151.522 0C172.73 0 191.705 3.42895 208.448 10.2871C225.47 17.1453 239.702 26.0357 251.143 36.958C258.06 43.255 263.812 49.7733 268.396 56.5127C273.516 64.039 269.589 73.8196 261.265 77.5029C252.88 81.2127 243.211 77.342 238.039 69.7715C230.8 59.1746 221.495 50.3959 210.123 43.4355C193.938 33.5292 174.404 28.5762 151.522 28.5762C128.641 28.5762 108.27 33.5292 90.4111 43.4355C72.5523 53.3418 58.6003 67.1854 48.5547 84.9658C38.509 102.492 33.4854 123.068 33.4854 146.69C33.4854 170.059 38.509 190.634 48.5547 208.415C58.6003 226.195 72.5523 240.039 90.4111 249.945C108.27 259.598 128.641 264.424 151.522 264.424C171.893 264.424 190.171 260.36 206.355 252.231C222.819 244.103 235.796 233.054 245.283 219.083C254.771 204.859 259.515 188.602 259.515 170.313V168.408L164.858 168.408C157.494 168.408 151.523 162.438 151.522 155.073C151.522 147.708 157.493 141.737 164.858 141.737L269.377 141.737C282.424 141.737 293 152.314 293 165.36C293 183.903 289.372 201.048 282.117 216.797C274.862 232.291 264.817 245.754 251.98 257.185C239.144 268.615 224.075 277.505 206.774 283.855C189.753 289.952 171.335 293 151.522 293C129.478 293 109.247 289.444 90.8301 282.332C72.413 274.966 56.3676 264.805 42.6943 251.851C29.3002 238.642 18.836 223.148 11.3018 205.367C3.76747 187.587 0 168.027 0 146.69C8.89594e-06 125.354 3.76753 105.795 11.3018 88.0146C18.836 70.234 29.3 54.7388 42.6943 41.5303C56.3676 28.3219 72.413 18.162 90.8301 11.0498C109.247 3.68358 129.478 4.41798e-05 151.522 0Z" fill="#1C9CF0"/>
<path d="M151.522 0C172.73 0 191.705 3.42895 208.448 10.2871C225.47 17.1453 239.702 26.0357 251.143 36.958C258.06 43.255 263.812 49.7733 268.396 56.5127C273.516 64.039 269.589 73.8196 261.265 77.5029C252.88 81.2127 243.211 77.342 238.039 69.7715C230.8 59.1746 221.495 50.3959 210.123 43.4355C193.938 33.5292 174.404 28.5762 151.522 28.5762C128.641 28.5762 108.27 33.5292 90.4111 43.4355C72.5523 53.3418 58.6003 67.1854 48.5547 84.9658C38.509 102.492 33.4854 123.068 33.4854 146.69C33.4854 170.059 38.509 190.634 48.5547 208.415C58.6003 226.195 72.5523 240.039 90.4111 249.945C108.27 259.598 128.641 264.424 151.522 264.424C171.893 264.424 190.171 260.36 206.355 252.231C222.819 244.103 235.796 233.054 245.283 219.083C254.771 204.859 259.515 188.602 259.515 170.313V168.408L164.858 168.408C157.494 168.408 151.523 162.438 151.522 155.073C151.522 147.708 157.493 141.737 164.858 141.737L269.377 141.737C282.424 141.737 293 152.314 293 165.36C293 183.903 289.372 201.048 282.117 216.797C274.862 232.291 264.817 245.754 251.98 257.185C239.144 268.615 224.075 277.505 206.774 283.855C189.753 289.952 171.335 293 151.522 293C129.478 293 109.247 289.444 90.8301 282.332C72.413 274.966 56.3676 264.805 42.6943 251.851C29.3002 238.642 18.836 223.148 11.3018 205.367C3.76747 187.587 0 168.027 0 146.69C8.89594e-06 125.354 3.76753 105.795 11.3018 88.0146C18.836 70.234 29.3 54.7388 42.6943 41.5303C56.3676 28.3219 72.413 18.162 90.8301 11.0498C109.247 3.68358 129.478 4.41798e-05 151.522 0Z" stroke="white"/>
<path d="M157.124 97.0693C157.768 95.3281 160.232 95.3281 160.876 97.0693L175.427 136.392C175.629 136.939 176.061 137.371 176.608 137.573L215.931 152.124C217.672 152.768 217.672 155.232 215.931 155.876L176.608 170.427C176.061 170.629 175.629 171.061 175.427 171.608L160.876 210.931C160.232 212.672 157.768 212.672 157.124 210.931L142.573 171.608C142.371 171.061 141.939 170.629 141.392 170.427L102.069 155.876C100.328 155.232 100.328 152.768 102.069 152.124L141.392 137.573C141.939 137.371 142.371 136.939 142.573 136.392L157.124 97.0693Z" fill="#1C9CF0"/>
<path d="M157.124 97.0693C157.768 95.3281 160.232 95.3281 160.876 97.0693L175.427 136.392C175.629 136.939 176.061 137.371 176.608 137.573L215.931 152.124C217.672 152.768 217.672 155.232 215.931 155.876L176.608 170.427C176.061 170.629 175.629 171.061 175.427 171.608L160.876 210.931C160.232 212.672 157.768 212.672 157.124 210.931L142.573 171.608C142.371 171.061 141.939 170.629 141.392 170.427L102.069 155.876C100.328 155.232 100.328 152.768 102.069 152.124L141.392 137.573C141.939 137.371 142.371 136.939 142.573 136.392L157.124 97.0693Z" stroke="white"/>
<path d="M116.393 115.376C115.22 112.842 117.842 110.22 120.376 111.393L157.93 128.775C158.725 129.143 159.641 129.145 160.437 128.781L197.922 111.658C200.448 110.505 203.05 113.107 201.896 115.633L184.774 153.118C184.41 153.914 184.412 154.83 184.78 155.625L202.162 193.179C203.335 195.713 200.713 198.335 198.179 197.162L160.625 179.78C159.83 179.412 158.914 179.41 158.118 179.774L120.633 196.896C118.107 198.05 115.505 195.448 116.658 192.922L133.781 155.437C134.145 154.641 134.143 153.725 133.775 152.93L116.393 115.376Z" fill="#1C9CF0"/>
<path d="M116.393 115.376C115.22 112.842 117.842 110.22 120.376 111.393L157.93 128.775C158.725 129.143 159.641 129.145 160.437 128.781L197.922 111.658C200.448 110.505 203.05 113.107 201.896 115.633L184.774 153.118C184.41 153.914 184.412 154.83 184.78 155.625L202.162 193.179C203.335 195.713 200.713 198.335 198.179 197.162L160.625 179.78C159.83 179.412 158.914 179.41 158.118 179.774L120.633 196.896C118.107 198.05 115.505 195.448 116.658 192.922L133.781 155.437C134.145 154.641 134.143 153.725 133.775 152.93L116.393 115.376Z" stroke="white"/>
</svg>
